<svg width="12" height="12" viewBox="0 0 12 12" fill="none" xmlns="http://www.w3.org/2000/svg">
<mask id="path-1-inside-1_108_126" fill="white">
<path d="M11.4302 8.55199C10.8398 9.8083 9.83205 10.821 8.57865 11.4176C7.32526 12.0142 5.90379 12.1577 4.55643 11.8238C3.20907 11.4898 2.0192 10.699 1.18955 9.58603C0.359907 8.47311 -0.0581826 7.10695 0.00652173 5.72032C0.0712261 4.3337 0.614721 3.01241 1.5444 1.98159C2.47408 0.95076 3.73243 0.274178 5.10503 0.0671228C6.47763 -0.139933 7.87957 0.135348 9.07196 0.846062C10.2643 1.55678 11.1734 2.65895 11.6443 3.96478L6 6L11.4302 8.55199Z"/>
</mask>
<path d="M11.4302 8.55199C10.8398 9.8083 9.83205 10.821 8.57865 11.4176C7.32526 12.0142 5.90379 12.1577 4.55643 11.8238C3.20907 11.4898 2.0192 10.699 1.18955 9.58603C0.359907 8.47311 -0.0581826 7.10695 0.00652173 5.72032C0.0712261 4.3337 0.614721 3.01241 1.5444 1.98159C2.47408 0.95076 3.73243 0.274178 5.10503 0.0671228C6.47763 -0.139933 7.87957 0.135348 9.07196 0.846062C10.2643 1.55678 11.1734 2.65895 11.6443 3.96478L6 6L11.4302 8.55199Z" fill="#EED70C" stroke="#333333" stroke-width="0.4" mask="url(#path-1-inside-1_108_126)"/>
<circle cx="8.25" cy="3.75" r="0.75" fill="#333333"/>
</svg>
