<svg width="152" height="57" viewBox="0 0 152 57" fill="none" xmlns="http://www.w3.org/2000/svg">
<path d="M21.9867 28.5357C21.7965 30.3619 21.6443 32.1312 21.5302 33.8433C21.5302 34.1857 21.5111 34.6233 21.4731 35.1559C21.4731 35.3462 21.4541 35.5745 21.416 35.8408C21.416 36.2213 21.397 36.4686 21.3589 36.5827C21.2068 39.0939 21.1307 41.0533 21.1307 42.4611C21.1307 46.38 21.6253 49.4618 22.6145 51.7066C23.3374 53.3046 24.1364 54.408 25.0115 55.0168C25.7344 55.5114 26.4763 55.6255 27.2373 55.3592C27.9982 55.0929 28.7211 54.4461 29.406 53.4188C30.0909 52.3915 30.6045 51.1359 30.9469 49.6521C31.784 46.0756 31.4796 42.423 30.0338 38.6944C28.4738 34.6994 25.7915 31.3131 21.9867 28.5357ZM20.8453 26.1387C21.0736 24.008 21.378 21.6491 21.7584 19.0618C22.2911 15.1429 22.7667 12.0421 23.1852 9.7592C23.2613 9.45482 23.3374 9.13141 23.4135 8.78898C23.2994 8.97922 23.2043 9.15044 23.1282 9.30263C22.6716 10.1777 22.1579 11.186 21.5872 12.3274C21.3209 12.822 20.9975 13.4308 20.617 14.1537C20.2365 14.8385 19.9322 15.4093 19.7039 15.8658C18.981 17.2355 18.4103 18.3199 17.9917 19.1189C17.2688 20.6028 16.4889 22.1817 15.6518 23.8558C17.4781 24.3504 19.2093 25.1114 20.8453 26.1387ZM0.128411 51.1359C2.03079 47.9399 4.04731 44.2683 6.17797 40.1211C7.47159 37.61 9.33592 33.8243 11.771 28.764V28.7069L11.828 28.6498V28.5927L11.8851 28.5357C11.9232 28.4596 11.9612 28.3645 11.9992 28.2503C12.6841 26.8806 13.2548 25.7201 13.7114 24.769C10.9339 24.2363 8.27059 24.3695 5.7214 25.1685C5.26483 25.2826 4.96045 25.1304 4.80826 24.7119C4.69412 24.2553 4.86533 23.97 5.3219 23.8558C8.21352 22.9807 11.2193 22.8666 14.3392 23.5134C15.2143 21.7252 16.0323 20.0701 16.7932 18.5482C17.2118 17.7111 17.7825 16.6078 18.5054 15.238L19.4185 13.4688C19.799 12.784 20.1224 12.1942 20.3887 11.6996C20.9594 10.5582 21.4731 9.54994 21.9297 8.67484C23.6038 5.36471 24.7832 2.62528 25.4681 0.456568C25.5822 0.152189 25.8105 0 26.1529 0C26.229 0 26.2861 0.0190235 26.3242 0.0570706C26.6666 0.171214 26.8378 0.380475 26.8378 0.684854C26.8378 0.76095 26.8188 0.837046 26.7807 0.91314C25.9817 3.38623 25.2398 6.43004 24.5549 10.0446C24.1364 12.2894 23.6418 15.3522 23.0711 19.233C22.6906 22.1247 22.3672 24.6929 22.1009 26.9377C26.5144 29.9815 29.5772 33.7292 31.2894 38.1807C32.8493 42.1757 33.1727 46.0946 32.2596 49.9374C31.8791 51.6496 31.2703 53.0954 30.4333 54.2748C29.6343 55.4924 28.7212 56.2914 27.6939 56.6718C26.5144 57.0523 25.373 56.8621 24.2696 56.1011C23.1662 55.3782 22.196 54.1036 21.3589 52.2773C20.2936 49.8423 19.761 46.5702 19.761 42.4611C19.761 41.0153 19.837 39.0178 19.9892 36.4686L20.0463 35.7837C20.0844 35.4793 20.1034 35.2511 20.1034 35.0989C20.1414 34.5662 20.1604 34.1096 20.1604 33.7292C20.2746 31.7887 20.4458 29.7532 20.6741 27.6225C20.598 27.5845 20.5219 27.5464 20.4458 27.5084C18.7337 26.405 16.9454 25.606 15.0811 25.1114C14.5865 26.1006 13.9777 27.3372 13.2548 28.821L13.1977 28.9352V28.9922L13.1407 29.0493V29.1064C13.0646 29.1825 13.0075 29.2776 12.9695 29.3917C10.5344 34.414 8.67009 38.1997 7.37647 40.7489C5.24581 44.8961 3.21026 48.6058 1.26984 51.8778C1.04155 52.2583 0.737171 52.3344 0.356696 52.1061C-0.0237797 51.8778 -0.0998748 51.5544 0.128411 51.1359Z" fill="black"/>
<path d="M40.7971 31.6175C40.8351 31.2751 40.8922 30.9517 40.9683 30.6473C39.903 30.2668 38.7996 30.1717 37.6582 30.3619C36.5928 30.5141 35.6607 30.8946 34.8617 31.5034C34.2149 32.036 33.8724 32.5307 33.8344 32.9872C33.8344 33.3297 34.1768 33.615 34.8617 33.8433C35.3563 33.9955 36.1363 33.8813 37.2016 33.5009C38.2669 33.0823 39.3703 32.5116 40.5117 31.7887C40.5878 31.7507 40.6829 31.6936 40.7971 31.6175ZM41.6532 29.4488C42.0717 29.0303 42.5092 28.84 42.9658 28.8781C43.2321 28.8781 43.4604 28.9352 43.6507 29.0493C43.917 29.2015 44.0882 29.4108 44.1643 29.6771C44.2404 30.0576 44.0882 30.4761 43.7077 30.9327C43.3653 31.3512 42.8517 31.8268 42.1668 32.3594C42.1668 32.4736 42.1858 32.5877 42.2239 32.7019C42.338 33.1584 42.6614 33.4058 43.1941 33.4438C44.0311 33.5199 45.2487 33.0253 46.8466 31.9599C47.2271 31.6936 47.5315 31.7507 47.7598 32.1312C48.0261 32.5116 47.9691 32.835 47.5886 33.1014C45.7623 34.3189 44.2594 34.8896 43.0799 34.8135C41.9766 34.7374 41.2537 34.1857 40.9112 33.1584C39.8459 33.8053 38.7996 34.3189 37.7723 34.6994C36.3645 35.232 35.2802 35.3842 34.5192 35.1559C33.1495 34.7374 32.4647 33.9955 32.4647 32.9302C32.5027 32.0551 33.0164 31.218 34.0056 30.419C34.9948 29.6961 36.1363 29.2205 37.4299 28.9922C38.9137 28.764 40.3215 28.9161 41.6532 29.4488Z" fill="black"/>
<path d="M48.3176 32.1882C47.9371 33.3677 47.8039 34.2428 47.9181 34.8135C47.9561 35.1179 48.1083 35.3081 48.3746 35.3842C49.0215 35.5364 50.277 35.175 52.1414 34.2999C52.4838 34.1096 52.8643 33.9194 53.2828 33.7292C53.2828 33.6911 53.3589 33.6531 53.5111 33.615C53.6633 33.5389 53.8345 33.4438 54.0247 33.3297C54.2149 33.2155 54.4052 33.1014 54.5954 32.9872C54.8237 32.8731 55.033 32.778 55.2232 32.7019C55.4134 32.5877 55.5466 32.5116 55.6227 32.4736C56.0412 32.2453 56.3456 32.3404 56.5358 32.7589C56.7641 33.1775 56.669 33.4818 56.2505 33.6721C56.1744 33.7482 56.0032 33.8623 55.7368 34.0145C55.4705 34.1287 55.2042 34.2618 54.9378 34.414C54.7096 34.5282 54.4813 34.6423 54.253 34.7564L53.9106 34.9277C53.492 35.1559 53.1116 35.3462 52.7691 35.4984C50.6004 36.5637 49.0215 36.9632 48.0322 36.6969C47.2332 36.5066 46.7386 35.9549 46.5484 35.0418C46.3962 34.2428 46.5484 33.1584 47.0049 31.7887C47.1191 31.3322 47.3854 31.18 47.8039 31.3322C48.2605 31.4463 48.4317 31.7317 48.3176 32.1882ZM47.4615 28.3074C47.4995 28.1552 47.5376 27.984 47.5756 27.7937L47.6327 27.7367V27.5655L47.6898 27.5084V27.3942L47.7469 27.2801C47.861 26.8616 48.1273 26.7094 48.5459 26.8235C49.0024 26.9377 49.1736 27.223 49.0595 27.6796C49.0215 27.8318 48.9644 28.003 48.8883 28.1932L48.7741 28.7069C48.622 29.1635 48.3176 29.3347 47.861 29.2205C47.4425 29.0683 47.3093 28.764 47.4615 28.3074Z" fill="black"/>
<path d="M58.1815 36.012C57.4967 36.7349 57.0211 37.4768 56.7548 38.2378C56.6406 38.5802 56.6026 38.8466 56.6406 39.0368C56.6406 39.1129 56.6596 39.1509 56.6977 39.1509C56.7357 39.189 56.8118 39.189 56.926 39.1509C57.1162 39.1509 57.3065 39.0939 57.4967 38.9797C57.9913 38.6753 58.3147 38.2568 58.4669 37.7242C58.5811 37.1915 58.4859 36.6208 58.1815 36.012ZM66.7993 32.9872C65.3155 32.9492 64.0979 33.0253 63.1468 33.2155C62.2336 33.4058 61.2634 33.8053 60.2361 34.414C59.8937 34.6043 59.5513 34.8325 59.2088 35.0989C59.8176 36.0881 60.0078 37.0773 59.7795 38.0666C59.5513 38.9417 59.0376 39.6265 58.2386 40.1211C57.3635 40.6538 56.6026 40.7299 55.9558 40.3494C55.1948 39.8548 55.0426 38.9987 55.4992 37.7812C55.8416 36.7539 56.4884 35.7647 57.4396 34.8135C56.3362 33.1014 55.7275 31.5604 55.6133 30.1907C55.4992 28.2123 56.3743 26.4811 58.2386 24.9972C58.6191 24.6929 58.9425 24.7309 59.2088 25.1114C59.5132 25.4538 59.4752 25.7772 59.0947 26.0816C57.6108 27.2611 56.907 28.6118 56.9831 30.1337C57.0591 31.199 57.5538 32.4736 58.4669 33.9574C58.8093 33.6911 59.1708 33.4438 59.5513 33.2155C60.6927 32.5687 61.7961 32.1312 62.8614 31.9029C63.9267 31.6746 65.2584 31.5795 66.8564 31.6175C67.0466 31.6556 67.1988 31.7507 67.313 31.9029C67.4651 32.017 67.5222 32.1692 67.4842 32.3594C67.4842 32.5497 67.4081 32.7209 67.2559 32.8731C67.1417 32.9872 66.9896 33.0253 66.7993 32.9872Z" fill="black"/>
<path d="M66.8622 41.2055C66.672 41.2055 66.5198 41.1484 66.4056 41.0343C66.2534 40.8821 66.1773 40.7109 66.1773 40.5206C66.1773 31.8458 66.7671 24.2934 67.9465 17.8633C68.0226 17.4068 68.289 17.2165 68.7455 17.2926C69.2021 17.3687 69.3923 17.635 69.3163 18.0916C68.2509 23.7987 67.6612 30.438 67.547 38.0095C67.7753 37.6671 67.9846 37.3437 68.1748 37.0393C68.6694 36.2783 69.1641 35.7076 69.6587 35.3272C70.4196 34.7945 71.1425 34.6803 71.8274 34.9847C72.2079 35.1369 72.5693 35.3842 72.9118 35.7267C73.0639 35.9549 73.2922 36.2593 73.5966 36.6398L73.6537 36.6969C74.0722 37.2676 74.4146 37.629 74.681 37.7812C75.6702 38.4661 77.0399 38.0285 78.7901 36.4686C79.9315 35.4793 81.13 34.1096 82.3856 32.3594C82.6519 32.017 82.9563 31.979 83.2987 32.2453C83.6792 32.4736 83.7363 32.778 83.4699 33.1584C82.1763 34.9847 80.9208 36.4305 79.7032 37.4959C78.714 38.371 77.7818 38.9607 76.9067 39.2651C75.7653 39.6456 74.7571 39.5314 73.882 38.9226C73.5015 38.6944 73.0449 38.2188 72.5123 37.4959C72.0176 36.811 71.6181 36.3925 71.3138 36.2403C70.8191 36.0501 70.1533 36.5827 69.3163 37.8383C68.5934 38.9036 68.0987 39.8738 67.8324 40.7489C67.7183 41.2055 67.4329 41.3577 66.9763 41.2055H66.8622Z" fill="black"/>
<path d="M83.861 32.7019C84.1273 32.7399 84.3175 32.778 84.4317 32.816C84.66 32.8541 85.0024 32.778 85.459 32.5877C85.9536 32.3594 86.3721 32.0931 86.7145 31.7887C86.8667 31.6746 86.9999 31.5414 87.114 31.3892C87.1521 31.3512 87.1711 31.3131 87.1711 31.2751C87.1711 31.237 87.1901 31.218 87.2282 31.218L87.114 31.1609C87.0379 31.0849 86.9619 31.0278 86.8858 30.9897C85.8204 30.6473 84.9834 30.8756 84.3746 31.6746C84.1463 31.979 83.9751 32.3214 83.861 32.7019ZM83.8039 34.0716C83.8419 34.1477 83.861 34.2048 83.861 34.2428C84.1273 35.1559 84.7741 35.5935 85.8014 35.5554C87.3994 35.4793 89.454 34.395 91.9651 32.3024C92.3075 31.998 92.6309 32.036 92.9353 32.4165C93.2397 32.7589 93.2017 33.0633 92.8212 33.3297C90.0817 35.6506 87.7608 36.8491 85.8585 36.9252C85.0214 36.9632 84.3175 36.773 83.7468 36.3544C83.1761 35.9359 82.7766 35.3652 82.5483 34.6423C82.1679 33.2726 82.4152 31.998 83.2903 30.8185C84.3175 29.4869 85.6682 29.1254 87.3423 29.7342C88.2174 30.0385 88.6169 30.5712 88.5408 31.3322C88.5028 31.8268 88.1794 32.3404 87.5706 32.8731C87.076 33.2916 86.5053 33.634 85.8585 33.9004C85.2117 34.1287 84.679 34.2048 84.2605 34.1287C84.1083 34.1287 83.9561 34.1096 83.8039 34.0716Z" fill="black"/>
<path d="M100.154 31.6175C100.192 31.2751 100.249 30.9517 100.325 30.6473C99.2594 30.2668 98.156 30.1717 97.0146 30.3619C95.9492 30.5141 95.0171 30.8946 94.2181 31.5034C93.5713 32.036 93.2289 32.5307 93.1908 32.9872C93.1908 33.3297 93.5332 33.615 94.2181 33.8433C94.7127 33.9955 95.4927 33.8813 96.558 33.5009C97.6233 33.0823 98.7267 32.5116 99.8681 31.7887C99.9442 31.7507 100.039 31.6936 100.154 31.6175ZM101.01 29.4488C101.428 29.0303 101.866 28.84 102.322 28.8781C102.589 28.8781 102.817 28.9352 103.007 29.0493C103.273 29.2015 103.445 29.4108 103.521 29.6771C103.597 30.0576 103.445 30.4761 103.064 30.9327C102.722 31.3512 102.208 31.8268 101.523 32.3594C101.523 32.4736 101.542 32.5877 101.58 32.7019C101.694 33.1584 102.018 33.4058 102.55 33.4438C103.388 33.5199 104.605 33.0253 106.203 31.9599C106.584 31.6936 106.888 31.7507 107.116 32.1312C107.383 32.5116 107.325 32.835 106.945 33.1014C105.119 34.3189 103.616 34.8896 102.436 34.8135C101.333 34.7374 100.61 34.1857 100.268 33.1584C99.2023 33.8053 98.156 34.3189 97.1287 34.6994C95.721 35.232 94.6366 35.3842 93.8757 35.1559C92.5059 34.7374 91.8211 33.9955 91.8211 32.9302C91.8591 32.0551 92.3728 31.218 93.362 30.419C94.3512 29.6961 95.4927 29.2205 96.7863 28.9922C98.2701 28.764 99.6779 28.9161 101.01 29.4488Z" fill="black"/>
<path d="M113.212 31.9599C111.196 31.1609 109.541 31.18 108.247 32.017C107.182 32.7399 106.687 33.634 106.763 34.6994C106.801 35.5745 107.239 35.9169 108.076 35.7267C109.407 35.4984 111.12 34.2428 113.212 31.9599ZM114.753 29.9625C115.286 29.0874 115.837 28.0981 116.408 26.9947C117.473 24.826 118.253 22.7715 118.748 20.831C119.319 18.5101 119.395 16.6839 118.976 15.3522C118.52 13.9444 117.416 13.1835 115.666 13.0693C114.106 12.9932 112.908 13.9254 112.071 15.8658C111.234 17.8443 110.986 20.1652 111.329 22.8285C111.709 25.606 112.66 27.8128 114.182 29.4488C114.373 29.639 114.563 29.8103 114.753 29.9625ZM115.038 31.8458C115 31.9219 114.962 31.979 114.924 32.017C112.375 35.0608 110.187 36.7539 108.361 37.0964C107.524 37.2486 106.839 37.1154 106.307 36.6969C105.736 36.2403 105.431 35.6125 105.393 34.8135C105.355 34.0906 105.527 33.3677 105.907 32.6448C106.287 31.9219 106.82 31.3322 107.505 30.8756C109.103 29.8483 111.062 29.7342 113.383 30.5332C113.307 30.4951 113.25 30.438 113.212 30.3619C111.462 28.5357 110.397 26.0816 110.016 22.9997C109.598 20.0701 109.864 17.5019 110.815 15.2951C111.919 12.784 113.574 11.5855 115.78 11.6996C118.139 11.8518 119.642 12.9362 120.289 14.9527C120.784 16.5126 120.708 18.5862 120.061 21.1735C119.528 23.228 118.71 25.3777 117.607 27.6225C117.036 28.802 116.446 29.8483 115.837 30.7614C117.283 31.5604 118.957 31.8078 120.86 31.5034C121.316 31.4273 121.583 31.6175 121.659 32.0741C121.735 32.5307 121.545 32.797 121.088 32.8731C118.805 33.2536 116.789 32.9111 115.038 31.8458Z" fill="black"/>
<path d="M38.8086 47.8686C39.7978 47.8686 40.5492 48.1207 41.0629 48.6248C41.586 49.1194 41.8476 49.79 41.8476 50.6365C41.8476 51.4831 41.586 52.1537 41.0629 52.6483C40.5492 53.1334 39.7978 53.376 38.8086 53.376H37.0394V56.8431H35.9122V47.8686H38.8086ZM38.8086 52.4058C39.4268 52.4058 39.8929 52.2488 40.2068 51.9349C40.5302 51.621 40.6919 51.193 40.6919 50.6508C40.6919 50.0991 40.5302 49.6616 40.2068 49.3382C39.8929 49.0053 39.4268 48.8388 38.8086 48.8388H37.0394V52.4058H38.8086Z" fill="black"/>
<path d="M47.251 47.8686V51.8208H51.6598V47.8686H52.7869V56.8431H51.6598V52.791H47.251V56.8431H46.1238V47.8686H47.251Z" fill="black"/>
<path d="M61.1186 47.7116C62.279 47.7116 63.2159 48.1111 63.9293 48.9101C64.6522 49.6996 65.0137 50.8553 65.0137 52.3772C65.0137 53.8896 64.657 55.0406 63.9436 55.83C63.2302 56.61 62.2885 57 61.1186 57C59.9486 57 59.0069 56.6053 58.2935 55.8158C57.5896 55.0168 57.2377 53.8658 57.2377 52.363C57.2377 50.8506 57.5896 49.6996 58.2935 48.9101C59.0069 48.1111 59.9486 47.7116 61.1186 47.7116ZM61.1186 48.7247C60.2815 48.7247 59.6204 49.0385 59.1353 49.6663C58.6502 50.2941 58.4077 51.1977 58.4077 52.3772C58.4077 53.5567 58.6502 54.4508 59.1353 55.0596C59.6204 55.6683 60.2815 55.9727 61.1186 55.9727C61.9556 55.9727 62.6167 55.6683 63.1018 55.0596C63.5964 54.4508 63.8437 53.5567 63.8437 52.3772C63.8437 51.1977 63.5964 50.2941 63.1018 49.6663C62.6167 49.0385 61.9556 48.7247 61.1186 48.7247Z" fill="black"/>
<path d="M68.1024 47.8686H75.0794V48.8388H72.1545V56.8431H71.0273V48.8388H68.1024V47.8686Z" fill="black"/>
<path d="M82.056 47.7116C83.2165 47.7116 84.1534 48.1111 84.8668 48.9101C85.5897 49.6996 85.9512 50.8553 85.9512 52.3772C85.9512 53.8896 85.5945 55.0406 84.8811 55.83C84.1677 56.61 83.226 57 82.056 57C80.8861 57 79.9444 56.6053 79.231 55.8158C78.5271 55.0168 78.1752 53.8658 78.1752 52.363C78.1752 50.8506 78.5271 49.6996 79.231 48.9101C79.9444 48.1111 80.8861 47.7116 82.056 47.7116ZM82.056 48.7247C81.219 48.7247 80.5579 49.0385 80.0728 49.6663C79.5877 50.2941 79.3452 51.1977 79.3452 52.3772C79.3452 53.5567 79.5877 54.4508 80.0728 55.0596C80.5579 55.6683 81.219 55.9727 82.056 55.9727C82.8931 55.9727 83.5542 55.6683 84.0393 55.0596C84.5339 54.4508 84.7812 53.5567 84.7812 52.3772C84.7812 51.1977 84.5339 50.2941 84.0393 49.6663C83.5542 49.0385 82.8931 48.7247 82.056 48.7247Z" fill="black"/>
<path d="M95.9456 55.3021C95.5461 56.434 94.7708 57 93.6199 57C92.469 57 91.5225 56.5815 90.7806 55.7444C90.0482 54.9074 89.682 53.7802 89.682 52.363C89.682 50.9457 90.0815 49.8185 90.8805 48.9815C91.689 48.1444 92.6925 47.7259 93.891 47.7259C94.5949 47.7259 95.2084 47.8686 95.7315 48.1539C96.2642 48.4393 96.7208 48.8959 97.1013 49.5237L96.0169 49.8946C95.3986 49.1242 94.6757 48.7389 93.8482 48.7389C93.0206 48.7389 92.3168 49.0766 91.7365 49.7519C91.1658 50.4273 90.8805 51.3071 90.8805 52.3915C90.8805 53.4663 91.1278 54.3319 91.6224 54.9882C92.117 55.6446 92.7829 55.9727 93.6199 55.9727C94.3048 55.9727 94.8564 55.7444 95.275 55.2879C95.6935 54.8313 95.9028 54.1559 95.9028 53.2618V53.2333L93.6484 53.1477V52.4058H97.0014V56.8431H96.0882L95.9456 55.3021Z" fill="black"/>
<path d="M108.124 50.4368C108.124 51.1787 107.924 51.778 107.524 52.2345C107.134 52.6911 106.554 52.986 105.784 53.1191L108.352 56.8431H106.897L104.571 53.1762H103.001V56.8431H101.874V47.8686H104.999C106.007 47.8686 106.778 48.1111 107.31 48.5962C107.853 49.0814 108.124 49.6949 108.124 50.4368ZM104.913 52.3915C105.589 52.3915 106.098 52.2298 106.44 51.9064C106.792 51.5735 106.968 51.1407 106.968 50.608C106.968 50.0658 106.797 49.6378 106.454 49.3239C106.121 49.0005 105.636 48.8388 104.999 48.8388H103.001V52.3915H104.913Z" fill="black"/>
<path d="M114.919 47.8686H116.289L119.299 56.8431H118.129L117.359 54.5602H113.792L113.021 56.8431H111.837L114.919 47.8686ZM114.092 53.6756H117.074L115.59 49.2526L114.092 53.6756Z" fill="black"/>
<path d="M126.265 47.8686C127.254 47.8686 128.005 48.1207 128.519 48.6248C129.042 49.1194 129.304 49.79 129.304 50.6365C129.304 51.4831 129.042 52.1537 128.519 52.6483C128.005 53.1334 127.254 53.376 126.265 53.376H124.496V56.8431H123.368V47.8686H126.265ZM126.265 52.4058C126.883 52.4058 127.349 52.2488 127.663 51.9349C127.986 51.621 128.148 51.193 128.148 50.6508C128.148 50.0991 127.986 49.6616 127.663 49.3382C127.349 49.0053 126.883 48.8388 126.265 48.8388H124.496V52.4058H126.265Z" fill="black"/>
<path d="M134.707 47.8686V51.8208H139.116V47.8686H140.243V56.8431H139.116V52.791H134.707V56.8431H133.58V47.8686H134.707Z" fill="black"/>
<path d="M145.45 47.8686L147.861 51.992L150.33 47.8686H151.657L148.432 53.162V56.8431H147.291V53.162L144.109 47.8686H145.45Z" fill="black"/>
</svg>
